# Blender v2.81 (sub 16) OBJ File: 'unit_orange.blend'
# www.blender.org
mtllib unit_orange.mtl
o Plane
v -0.231875 0.074841 -1.389097
v 0.231875 0.074841 -1.389097
v -0.301736 0.246101 -1.967758
v 0.301736 0.246101 -1.967758
v 0.000000 0.046058 -1.291843
v 0.000000 0.274885 -2.065012
v -0.403160 0.160471 -1.678427
v 0.403160 0.160471 -1.678427
v 0.000000 0.160471 -1.678427
v -0.301736 0.028509 -1.232547
v 0.301736 0.028509 -1.232547
v 0.000000 -0.000274 -1.135293
v -0.301736 -0.065263 -0.915704
v 0.301736 -0.065263 -0.915704
v 0.000000 -0.094047 -0.818450
v -0.844853 -0.038317 -1.006751
v -0.844853 -0.132090 -0.689908
v 0.913217 -0.031850 -1.028602
v 0.913217 -0.125623 -0.711760
v -0.678523 -0.335845 -0.001450
v 0.678523 -0.335845 -0.001450
v 0.000000 -0.333587 -0.009081
v -0.678523 0.603751 -0.003435
v 0.678523 0.603751 -0.003435
v 0.000000 0.603751 -0.011393
vt 0.145869 0.854131
vt 0.114075 0.999895
vt 0.231168 0.987020
vt 0.291633 0.885925
vt 0.000105 0.822337
vt 0.012980 0.939429
vt 0.085829 0.726751
vt 0.177663 0.708367
vt 0.253500 0.763323
vt 0.190538 0.649339
vt 0.073446 0.662214
vt 0.291633 0.709804
vt 0.821393 0.200641
vt 0.783920 0.312001
vt 0.661899 0.312001
vt 0.699430 0.200601
vt 0.821393 0.423362
vt 0.699430 0.423402
vt 0.612579 0.000105
vt 0.734542 0.000145
vt 0.742961 0.649089
vt 0.620998 0.649129
vt 0.348435 0.312001
vt 0.347174 0.060224
vt 0.347174 0.563779
vt 0.000105 0.061652
vt 0.000731 0.312001
vt 0.000105 0.562351
vn 0.0000 -0.9589 -0.2838
vn -0.0115 -0.0023 -0.9999
vn 0.0115 -0.0023 -0.9999
usemtl Material.001
s off
f 9/1/1 6/2/1 4/3/1 8/4/1
f 7/5/1 3/6/1 6/2/1 9/1/1
f 1/7/1 7/5/1 9/1/1 5/8/1
f 5/8/1 9/1/1 8/4/1 2/9/1
f 5/8/1 12/10/1 10/11/1 1/7/1
f 2/9/1 11/12/1 12/10/1 5/8/1
f 10/13/1 12/14/1 15/15/1 13/16/1
f 12/14/1 11/17/1 14/18/1 15/15/1
f 10/13/1 13/16/1 17/19/1 16/20/1
f 14/18/1 11/17/1 18/21/1 19/22/1
f 13/16/1 15/15/1 22/23/1 20/24/1
f 15/15/1 14/18/1 21/25/1 22/23/1
f 20/24/2 23/26/2 25/27/2 22/23/2
f 22/23/3 25/27/3 24/28/3 21/25/3
