{
    "asset" : {
        "generator" : "Khronos glTF Blender I/O v1.0.5",
        "version" : "2.0"
    },
    "scene" : 0,
    "scenes" : [
        {
            "name" : "Scene",
            "nodes" : [
                0,
                1,
                2,
                3,
                4,
                5
            ]
        }
    ],
    "nodes" : [
        {
            "mesh" : 0,
            "name" : "Cube"
        },
        {
            "mesh" : 1,
            "name" : "Cube.001"
        },
        {
            "mesh" : 2,
            "name" : "Cube.002"
        },
        {
            "mesh" : 3,
            "name" : "Cube.003"
        },
        {
            "mesh" : 4,
            "name" : "Cube.004"
        },
        {
            "mesh" : 5,
            "name" : "Cube.005"
        }
    ],
    "animations" : [
        {
            "channels" : [
                {
                    "sampler" : 0,
                    "target" : {
                        "node" : 0,
                        "path" : "translation"
                    }
                },
                {
                    "sampler" : 1,
                    "target" : {
                        "node" : 0,
                        "path" : "rotation"
                    }
                }
            ],
            "name" : "CubeAction",
            "samplers" : [
                {
                    "input" : 27,
                    "interpolation" : "LINEAR",
                    "output" : 28
                },
                {
                    "input" : 27,
                    "interpolation" : "LINEAR",
                    "output" : 29
                }
            ]
        },
        {
            "channels" : [
                {
                    "sampler" : 0,
                    "target" : {
                        "node" : 1,
                        "path" : "translation"
                    }
                },
                {
                    "sampler" : 1,
                    "target" : {
                        "node" : 1,
                        "path" : "rotation"
                    }
                }
            ],
            "name" : "Cube.001Action",
            "samplers" : [
                {
                    "input" : 27,
                    "interpolation" : "LINEAR",
                    "output" : 30
                },
                {
                    "input" : 27,
                    "interpolation" : "LINEAR",
                    "output" : 31
                }
            ]
        },
        {
            "channels" : [
                {
                    "sampler" : 0,
                    "target" : {
                        "node" : 2,
                        "path" : "translation"
                    }
                },
                {
                    "sampler" : 1,
                    "target" : {
                        "node" : 2,
                        "path" : "rotation"
                    }
                }
            ],
            "name" : "Cube.002Action",
            "samplers" : [
                {
                    "input" : 27,
                    "interpolation" : "LINEAR",
                    "output" : 32
                },
                {
                    "input" : 27,
                    "interpolation" : "LINEAR",
                    "output" : 33
                }
            ]
        },
        {
            "channels" : [
                {
                    "sampler" : 0,
                    "target" : {
                        "node" : 3,
                        "path" : "translation"
                    }
                },
                {
                    "sampler" : 1,
                    "target" : {
                        "node" : 3,
                        "path" : "rotation"
                    }
                }
            ],
            "name" : "Cube.003Action",
            "samplers" : [
                {
                    "input" : 27,
                    "interpolation" : "LINEAR",
                    "output" : 34
                },
                {
                    "input" : 27,
                    "interpolation" : "LINEAR",
                    "output" : 35
                }
            ]
        },
        {
            "channels" : [
                {
                    "sampler" : 0,
                    "target" : {
                        "node" : 4,
                        "path" : "translation"
                    }
                },
                {
                    "sampler" : 1,
                    "target" : {
                        "node" : 4,
                        "path" : "rotation"
                    }
                }
            ],
            "name" : "Cube.004Action",
            "samplers" : [
                {
                    "input" : 27,
                    "interpolation" : "LINEAR",
                    "output" : 36
                },
                {
                    "input" : 27,
                    "interpolation" : "LINEAR",
                    "output" : 37
                }
            ]
        },
        {
            "channels" : [
                {
                    "sampler" : 0,
                    "target" : {
                        "node" : 5,
                        "path" : "translation"
                    }
                },
                {
                    "sampler" : 1,
                    "target" : {
                        "node" : 5,
                        "path" : "rotation"
                    }
                }
            ],
            "name" : "Cube.005Action",
            "samplers" : [
                {
                    "input" : 27,
                    "interpolation" : "LINEAR",
                    "output" : 38
                },
                {
                    "input" : 27,
                    "interpolation" : "LINEAR",
                    "output" : 39
                }
            ]
        }
    ],
    "materials" : [
        {
            "doubleSided" : true,
            "name" : "Material",
            "pbrMetallicRoughness" : {
                "baseColorTexture" : {
                    "index" : 0,
                    "texCoord" : 0
                },
                "metallicFactor" : 0,
                "roughnessFactor" : 0.4000000059604645
            }
        }
    ],
    "meshes" : [
        {
            "name" : "Cube",
            "primitives" : [
                {
                    "attributes" : {
                        "POSITION" : 0,
                        "NORMAL" : 1,
                        "TANGENT" : 2,
                        "TEXCOORD_0" : 3
                    },
                    "indices" : 4,
                    "material" : 0
                }
            ]
        },
        {
            "name" : "Cube.001",
            "primitives" : [
                {
                    "attributes" : {
                        "POSITION" : 5,
                        "NORMAL" : 6,
                        "TANGENT" : 7,
                        "TEXCOORD_0" : 8
                    },
                    "indices" : 9,
                    "material" : 0
                }
            ]
        },
        {
            "name" : "Cube.002",
            "primitives" : [
                {
                    "attributes" : {
                        "POSITION" : 10,
                        "NORMAL" : 11,
                        "TANGENT" : 12,
                        "TEXCOORD_0" : 13
                    },
                    "indices" : 14,
                    "material" : 0
                }
            ]
        },
        {
            "name" : "Cube.003",
            "primitives" : [
                {
                    "attributes" : {
                        "POSITION" : 15,
                        "NORMAL" : 16,
                        "TANGENT" : 17,
                        "TEXCOORD_0" : 18
                    },
                    "indices" : 4,
                    "material" : 0
                }
            ]
        },
        {
            "name" : "Cube.004",
            "primitives" : [
                {
                    "attributes" : {
                        "POSITION" : 19,
                        "NORMAL" : 20,
                        "TANGENT" : 21,
                        "TEXCOORD_0" : 22
                    },
                    "indices" : 4,
                    "material" : 0
                }
            ]
        },
        {
            "name" : "Cube.005",
            "primitives" : [
                {
                    "attributes" : {
                        "POSITION" : 23,
                        "NORMAL" : 24,
                        "TANGENT" : 25,
                        "TEXCOORD_0" : 26
                    },
                    "indices" : 4,
                    "material" : 0
                }
            ]
        }
    ],
    "textures" : [
        {
            "source" : 0
        }
    ],
    "images" : [
        {
            "mimeType" : "image/png",
            "name" : "box_side",
            "uri" : "box_side.png"
        }
    ],
    "accessors" : [
        {
            "bufferView" : 0,
            "componentType" : 5126,
            "count" : 24,
            "max" : [
                1,
                2.002971649169922,
                -1
            ],
            "min" : [
                -1,
                0.0025099515914916992,
                -1.1338484287261963
            ],
            "type" : "VEC3"
        },
        {
            "bufferView" : 1,
            "componentType" : 5126,
            "count" : 24,
            "type" : "VEC3"
        },
        {
            "bufferView" : 2,
            "componentType" : 5126,
            "count" : 24,
            "type" : "VEC4"
        },
        {
            "bufferView" : 3,
            "componentType" : 5126,
            "count" : 24,
            "type" : "VEC2"
        },
        {
            "bufferView" : 4,
            "componentType" : 5123,
            "count" : 36,
            "type" : "SCALAR"
        },
        {
            "bufferView" : 5,
            "componentType" : 5126,
            "count" : 26,
            "max" : [
                1.1338481903076172,
                2.0025100708007812,
                1
            ],
            "min" : [
                1,
                0.0021981457248330116,
                -1.0004432201385498
            ],
            "type" : "VEC3"
        },
        {
            "bufferView" : 6,
            "componentType" : 5126,
            "count" : 26,
            "type" : "VEC3"
        },
        {
            "bufferView" : 7,
            "componentType" : 5126,
            "count" : 26,
            "type" : "VEC4"
        },
        {
            "bufferView" : 8,
            "componentType" : 5126,
            "count" : 26,
            "type" : "VEC2"
        },
        {
            "bufferView" : 9,
            "componentType" : 5123,
            "count" : 36,
            "type" : "SCALAR"
        },
        {
            "bufferView" : 10,
            "componentType" : 5126,
            "count" : 26,
            "max" : [
                -1,
                2.0025100708007812,
                1
            ],
            "min" : [
                -1.1336164474487305,
                -0.005368557758629322,
                -1.0004432201385498
            ],
            "type" : "VEC3"
        },
        {
            "bufferView" : 11,
            "componentType" : 5126,
            "count" : 26,
            "type" : "VEC3"
        },
        {
            "bufferView" : 12,
            "componentType" : 5126,
            "count" : 26,
            "type" : "VEC4"
        },
        {
            "bufferView" : 13,
            "componentType" : 5126,
            "count" : 26,
            "type" : "VEC2"
        },
        {
            "bufferView" : 14,
            "componentType" : 5123,
            "count" : 36,
            "type" : "SCALAR"
        },
        {
            "bufferView" : 15,
            "componentType" : 5126,
            "count" : 24,
            "max" : [
                1,
                0.0025099515914916992,
                1
            ],
            "min" : [
                -1,
                -0.13133855164051056,
                -1.0004432201385498
            ],
            "type" : "VEC3"
        },
        {
            "bufferView" : 16,
            "componentType" : 5126,
            "count" : 24,
            "type" : "VEC3"
        },
        {
            "bufferView" : 17,
            "componentType" : 5126,
            "count" : 24,
            "type" : "VEC4"
        },
        {
            "bufferView" : 18,
            "componentType" : 5126,
            "count" : 24,
            "type" : "VEC2"
        },
        {
            "bufferView" : 19,
            "componentType" : 5126,
            "count" : 24,
            "max" : [
                1,
                2.0025100708007812,
                1.1338492631912231
            ],
            "min" : [
                -1,
                0.0025099515914916992,
                1
            ],
            "type" : "VEC3"
        },
        {
            "bufferView" : 20,
            "componentType" : 5126,
            "count" : 24,
            "type" : "VEC3"
        },
        {
            "bufferView" : 21,
            "componentType" : 5126,
            "count" : 24,
            "type" : "VEC4"
        },
        {
            "bufferView" : 22,
            "componentType" : 5126,
            "count" : 24,
            "type" : "VEC2"
        },
        {
            "bufferView" : 23,
            "componentType" : 5126,
            "count" : 24,
            "max" : [
                1,
                2.136359214782715,
                1
            ],
            "min" : [
                -1,
                2.0025100708007812,
                -1.0000333786010742
            ],
            "type" : "VEC3"
        },
        {
            "bufferView" : 24,
            "componentType" : 5126,
            "count" : 24,
            "type" : "VEC3"
        },
        {
            "bufferView" : 25,
            "componentType" : 5126,
            "count" : 24,
            "type" : "VEC4"
        },
        {
            "bufferView" : 26,
            "componentType" : 5126,
            "count" : 24,
            "type" : "VEC2"
        },
        {
            "bufferView" : 27,
            "componentType" : 5126,
            "count" : 23,
            "max" : [
                0.9166666666666666
            ],
            "min" : [
                0
            ],
            "type" : "SCALAR"
        },
        {
            "bufferView" : 28,
            "componentType" : 5126,
            "count" : 23,
            "type" : "VEC3"
        },
        {
            "bufferView" : 29,
            "componentType" : 5126,
            "count" : 23,
            "type" : "VEC4"
        },
        {
            "bufferView" : 30,
            "componentType" : 5126,
            "count" : 23,
            "type" : "VEC3"
        },
        {
            "bufferView" : 31,
            "componentType" : 5126,
            "count" : 23,
            "type" : "VEC4"
        },
        {
            "bufferView" : 32,
            "componentType" : 5126,
            "count" : 23,
            "type" : "VEC3"
        },
        {
            "bufferView" : 33,
            "componentType" : 5126,
            "count" : 23,
            "type" : "VEC4"
        },
        {
            "bufferView" : 34,
            "componentType" : 5126,
            "count" : 23,
            "type" : "VEC3"
        },
        {
            "bufferView" : 35,
            "componentType" : 5126,
            "count" : 23,
            "type" : "VEC4"
        },
        {
            "bufferView" : 36,
            "componentType" : 5126,
            "count" : 23,
            "type" : "VEC3"
        },
        {
            "bufferView" : 37,
            "componentType" : 5126,
            "count" : 23,
            "type" : "VEC4"
        },
        {
            "bufferView" : 38,
            "componentType" : 5126,
            "count" : 23,
            "type" : "VEC3"
        },
        {
            "bufferView" : 39,
            "componentType" : 5126,
            "count" : 23,
            "type" : "VEC4"
        }
    ],
    "bufferViews" : [
        {
            "buffer" : 0,
            "byteLength" : 288,
            "byteOffset" : 0
        },
        {
            "buffer" : 0,
            "byteLength" : 288,
            "byteOffset" : 288
        },
        {
            "buffer" : 0,
            "byteLength" : 384,
            "byteOffset" : 576
        },
        {
            "buffer" : 0,
            "byteLength" : 192,
            "byteOffset" : 960
        },
        {
            "buffer" : 0,
            "byteLength" : 72,
            "byteOffset" : 1152
        },
        {
            "buffer" : 0,
            "byteLength" : 312,
            "byteOffset" : 1224
        },
        {
            "buffer" : 0,
            "byteLength" : 312,
            "byteOffset" : 1536
        },
        {
            "buffer" : 0,
            "byteLength" : 416,
            "byteOffset" : 1848
        },
        {
            "buffer" : 0,
            "byteLength" : 208,
            "byteOffset" : 2264
        },
        {
            "buffer" : 0,
            "byteLength" : 72,
            "byteOffset" : 2472
        },
        {
            "buffer" : 0,
            "byteLength" : 312,
            "byteOffset" : 2544
        },
        {
            "buffer" : 0,
            "byteLength" : 312,
            "byteOffset" : 2856
        },
        {
            "buffer" : 0,
            "byteLength" : 416,
            "byteOffset" : 3168
        },
        {
            "buffer" : 0,
            "byteLength" : 208,
            "byteOffset" : 3584
        },
        {
            "buffer" : 0,
            "byteLength" : 72,
            "byteOffset" : 3792
        },
        {
            "buffer" : 0,
            "byteLength" : 288,
            "byteOffset" : 3864
        },
        {
            "buffer" : 0,
            "byteLength" : 288,
            "byteOffset" : 4152
        },
        {
            "buffer" : 0,
            "byteLength" : 384,
            "byteOffset" : 4440
        },
        {
            "buffer" : 0,
            "byteLength" : 192,
            "byteOffset" : 4824
        },
        {
            "buffer" : 0,
            "byteLength" : 288,
            "byteOffset" : 5016
        },
        {
            "buffer" : 0,
            "byteLength" : 288,
            "byteOffset" : 5304
        },
        {
            "buffer" : 0,
            "byteLength" : 384,
            "byteOffset" : 5592
        },
        {
            "buffer" : 0,
            "byteLength" : 192,
            "byteOffset" : 5976
        },
        {
            "buffer" : 0,
            "byteLength" : 288,
            "byteOffset" : 6168
        },
        {
            "buffer" : 0,
            "byteLength" : 288,
            "byteOffset" : 6456
        },
        {
            "buffer" : 0,
            "byteLength" : 384,
            "byteOffset" : 6744
        },
        {
            "buffer" : 0,
            "byteLength" : 192,
            "byteOffset" : 7128
        },
        {
            "buffer" : 0,
            "byteLength" : 92,
            "byteOffset" : 7320
        },
        {
            "buffer" : 0,
            "byteLength" : 276,
            "byteOffset" : 7412
        },
        {
            "buffer" : 0,
            "byteLength" : 368,
            "byteOffset" : 7688
        },
        {
            "buffer" : 0,
            "byteLength" : 276,
            "byteOffset" : 8056
        },
        {
            "buffer" : 0,
            "byteLength" : 368,
            "byteOffset" : 8332
        },
        {
            "buffer" : 0,
            "byteLength" : 276,
            "byteOffset" : 8700
        },
        {
            "buffer" : 0,
            "byteLength" : 368,
            "byteOffset" : 8976
        },
        {
            "buffer" : 0,
            "byteLength" : 276,
            "byteOffset" : 9344
        },
        {
            "buffer" : 0,
            "byteLength" : 368,
            "byteOffset" : 9620
        },
        {
            "buffer" : 0,
            "byteLength" : 276,
            "byteOffset" : 9988
        },
        {
            "buffer" : 0,
            "byteLength" : 368,
            "byteOffset" : 10264
        },
        {
            "buffer" : 0,
            "byteLength" : 276,
            "byteOffset" : 10632
        },
        {
            "buffer" : 0,
            "byteLength" : 368,
            "byteOffset" : 10908
        }
    ],
    "buffers" : [
        {
            "byteLength" : 11276,
            "uri" : "block_placed.bin"
        }
    ]
}
