# Blender v2.81 (sub 16) OBJ File: ''
# www.blender.org
mtllib arrow.mtl
o Cone
v -0.000000 0.084082 -0.185203
v 0.036131 0.084082 -0.181644
v 0.070874 0.084082 -0.171105
v 0.102893 0.084082 -0.153990
v 0.130958 0.084082 -0.130958
v 0.153990 0.084082 -0.102893
v 0.171105 0.084082 -0.070874
v 0.181644 0.084082 -0.036131
v 0.185203 0.084082 -0.000000
v 0.181644 0.084082 0.036131
v 0.171105 0.084082 0.070874
v 0.153990 0.084082 0.102893
v 0.130958 0.084082 0.130958
v 0.102893 0.084082 0.153990
v 0.070874 0.084082 0.171105
v 0.036131 0.084082 0.181644
v -0.000000 0.084082 0.185203
v -0.036131 0.084082 0.181644
v -0.070874 0.084082 0.171105
v -0.102893 0.084082 0.153990
v -0.130958 0.084082 0.130958
v -0.153990 0.084082 0.102893
v -0.171105 0.084082 0.070874
v 0.000000 0.717766 0.000000
v -0.181644 0.084082 0.036131
v -0.185203 0.084082 -0.000000
v -0.181644 0.084082 -0.036131
v -0.171105 0.084082 -0.070874
v -0.153990 0.084082 -0.102893
v -0.130958 0.084082 -0.130958
v -0.102893 0.084082 -0.153991
v -0.070874 0.084082 -0.171105
v -0.036131 0.084082 -0.181644
v 0.000000 0.084082 -0.476248
v 0.092911 0.084082 -0.467097
v 0.182252 0.084082 -0.439996
v 0.264589 0.084082 -0.395986
v 0.336759 0.084082 -0.336759
v 0.395986 0.084082 -0.264589
v 0.439996 0.084082 -0.182252
v 0.467097 0.084082 -0.092911
v 0.476248 0.084082 -0.000000
v 0.467098 0.084082 0.092911
v 0.439996 0.084082 0.182252
v 0.395986 0.084082 0.264589
v 0.336759 0.084082 0.336759
v 0.264589 0.084082 0.395986
v 0.182252 0.084082 0.439996
v 0.092911 0.084082 0.467098
v -0.000000 0.084082 0.476248
v -0.092912 0.084082 0.467097
v -0.182253 0.084082 0.439996
v -0.264590 0.084082 0.395986
v -0.336759 0.084082 0.336758
v -0.395986 0.084082 0.264589
v -0.439996 0.084082 0.182252
v -0.467098 0.084082 0.092911
v -0.476248 0.084082 -0.000000
v -0.467097 0.084082 -0.092912
v -0.439996 0.084082 -0.182253
v -0.395986 0.084082 -0.264590
v -0.336758 0.084082 -0.336759
v -0.264589 0.084082 -0.395986
v -0.182252 0.084082 -0.439996
v -0.092911 0.084082 -0.467098
v -0.000000 -0.718449 -0.185203
v 0.036131 -0.718449 -0.181644
v 0.070874 -0.718449 -0.171105
v 0.102893 -0.718449 -0.153990
v 0.130958 -0.718449 -0.130958
v 0.153990 -0.718449 -0.102893
v 0.171105 -0.718449 -0.070874
v 0.181644 -0.718449 -0.036131
v 0.185203 -0.718449 -0.000000
v 0.181644 -0.718449 0.036131
v 0.171105 -0.718449 0.070874
v 0.153990 -0.718449 0.102893
v 0.130958 -0.718449 0.130958
v 0.102893 -0.718449 0.153990
v 0.070874 -0.718449 0.171105
v 0.036131 -0.718449 0.181644
v -0.000000 -0.718449 0.185203
v -0.036131 -0.718449 0.181644
v -0.070874 -0.718449 0.171105
v -0.102893 -0.718449 0.153990
v -0.130958 -0.718449 0.130958
v -0.153990 -0.718449 0.102893
v -0.171105 -0.718449 0.070874
v -0.181644 -0.718449 0.036131
v -0.185203 -0.718449 -0.000000
v -0.181644 -0.718449 -0.036131
v -0.171105 -0.718449 -0.070874
v -0.153990 -0.718449 -0.102893
v -0.130958 -0.718449 -0.130958
v -0.102893 -0.718449 -0.153991
v -0.070874 -0.718449 -0.171105
v -0.036131 -0.718449 -0.181644
vt 0.250000 0.490000
vt 0.250000 0.250000
vt 0.296822 0.485388
vt 0.341844 0.471731
vt 0.383337 0.449553
vt 0.419706 0.419706
vt 0.449553 0.383337
vt 0.471731 0.341844
vt 0.485388 0.296822
vt 0.490000 0.250000
vt 0.485388 0.203178
vt 0.471731 0.158156
vt 0.449553 0.116663
vt 0.419706 0.080294
vt 0.383337 0.050447
vt 0.341844 0.028269
vt 0.296822 0.014612
vt 0.250000 0.010000
vt 0.203178 0.014612
vt 0.158156 0.028269
vt 0.116663 0.050447
vt 0.080294 0.080294
vt 0.050447 0.116663
vt 0.028269 0.158156
vt 0.014611 0.203179
vt 0.010000 0.250000
vt 0.014612 0.296822
vt 0.028269 0.341844
vt 0.050447 0.383337
vt 0.080295 0.419706
vt 0.116663 0.449553
vt 0.158156 0.471731
vt 0.203179 0.485389
vt 0.818359 0.415034
vt 0.849242 0.398527
vt 0.849242 0.398527
vt 0.818359 0.415034
vt 0.784849 0.425199
vt 0.750000 0.428632
vt 0.750000 0.490000
vt 0.796822 0.485388
vt 0.841844 0.471731
vt 0.883337 0.449553
vt 0.876312 0.376312
vt 0.919706 0.419706
vt 0.898527 0.349242
vt 0.949553 0.383337
vt 0.915034 0.318359
vt 0.971731 0.341844
vt 0.925199 0.284849
vt 0.985388 0.296822
vt 0.928631 0.250000
vt 0.990000 0.250000
vt 0.925199 0.215151
vt 0.985388 0.203178
vt 0.915034 0.181641
vt 0.971731 0.158156
vt 0.898527 0.150758
vt 0.949553 0.116663
vt 0.876311 0.123689
vt 0.919706 0.080294
vt 0.849242 0.101473
vt 0.883337 0.050447
vt 0.818359 0.084966
vt 0.841844 0.028269
vt 0.784849 0.074801
vt 0.796822 0.014612
vt 0.750000 0.071368
vt 0.750000 0.010000
vt 0.715151 0.074801
vt 0.703178 0.014612
vt 0.681641 0.084966
vt 0.658156 0.028269
vt 0.650758 0.101473
vt 0.616663 0.050447
vt 0.623688 0.123688
vt 0.580294 0.080294
vt 0.601473 0.150758
vt 0.550447 0.116663
vt 0.584966 0.181641
vt 0.528269 0.158156
vt 0.574801 0.215151
vt 0.514611 0.203179
vt 0.571369 0.250000
vt 0.510000 0.250000
vt 0.574801 0.284849
vt 0.514612 0.296822
vt 0.584966 0.318359
vt 0.528269 0.341844
vt 0.601473 0.349243
vt 0.550447 0.383337
vt 0.623689 0.376312
vt 0.580295 0.419706
vt 0.650758 0.398527
vt 0.616663 0.449553
vt 0.681641 0.415034
vt 0.658156 0.471731
vt 0.715151 0.425199
vt 0.703179 0.485389
vt 0.750000 0.428632
vt 0.784849 0.425199
vt 0.876312 0.376312
vt 0.898527 0.349242
vt 0.915034 0.318359
vt 0.925199 0.284849
vt 0.928631 0.250000
vt 0.925199 0.215151
vt 0.915034 0.181641
vt 0.898527 0.150758
vt 0.876311 0.123689
vt 0.849242 0.101473
vt 0.818359 0.084966
vt 0.784849 0.074801
vt 0.750000 0.071368
vt 0.715151 0.074801
vt 0.681641 0.084966
vt 0.650758 0.101473
vt 0.623688 0.123688
vt 0.601473 0.150758
vt 0.584966 0.181641
vt 0.574801 0.215151
vt 0.571369 0.250000
vt 0.574801 0.284849
vt 0.584966 0.318359
vt 0.601473 0.349243
vt 0.623689 0.376312
vt 0.650758 0.398527
vt 0.681641 0.415034
vt 0.715151 0.425199
vn 0.0785 0.5989 -0.7969
vn 0.2325 0.5989 -0.7663
vn 0.3775 0.5989 -0.7062
vn 0.5080 0.5989 -0.6190
vn 0.6190 0.5989 -0.5080
vn 0.7062 0.5989 -0.3775
vn 0.7663 0.5989 -0.2325
vn 0.7969 0.5989 -0.0785
vn 0.7969 0.5989 0.0785
vn 0.7663 0.5989 0.2325
vn 0.7062 0.5989 0.3775
vn 0.6190 0.5989 0.5080
vn 0.5080 0.5989 0.6190
vn 0.3775 0.5989 0.7062
vn 0.2325 0.5989 0.7663
vn 0.0785 0.5989 0.7969
vn -0.0785 0.5989 0.7969
vn -0.2325 0.5989 0.7663
vn -0.3775 0.5989 0.7062
vn -0.5080 0.5989 0.6190
vn -0.6190 0.5989 0.5080
vn -0.7062 0.5989 0.3775
vn -0.7663 0.5989 0.2325
vn -0.7969 0.5989 0.0785
vn -0.7969 0.5989 -0.0785
vn -0.7663 0.5989 -0.2325
vn -0.7062 0.5989 -0.3775
vn -0.6190 0.5989 -0.5080
vn -0.5080 0.5989 -0.6190
vn -0.3775 0.5989 -0.7062
vn -0.2325 0.5989 -0.7663
vn -0.0785 0.5989 -0.7969
vn 0.4714 -0.0000 -0.8819
vn 0.0000 -1.0000 0.0000
vn -0.4714 0.0000 -0.8819
vn -0.0980 0.0000 0.9952
vn 0.6344 -0.0000 -0.7730
vn -0.2903 0.0000 -0.9569
vn -0.2903 0.0000 0.9569
vn 0.7730 -0.0000 -0.6344
vn -0.0980 0.0000 -0.9952
vn -0.4714 0.0000 0.8819
vn 0.8819 0.0000 -0.4714
vn -0.6344 0.0000 0.7730
vn 0.9569 0.0000 -0.2903
vn -0.7730 0.0000 0.6344
vn 0.9952 0.0000 -0.0980
vn -0.8819 0.0000 0.4714
vn 0.9952 0.0000 0.0980
vn -0.9569 0.0000 0.2903
vn 0.9569 0.0000 0.2903
vn -0.9952 0.0000 0.0980
vn 0.8819 -0.0000 0.4714
vn -0.9952 0.0000 -0.0980
vn 0.7730 0.0000 0.6344
vn -0.9569 0.0000 -0.2903
vn 0.6344 0.0000 0.7730
vn -0.8819 0.0000 -0.4714
vn 0.4714 -0.0000 0.8819
vn 0.0980 -0.0000 -0.9952
vn -0.7730 0.0000 -0.6344
vn 0.2903 -0.0000 0.9569
vn 0.2903 -0.0000 -0.9569
vn -0.6344 0.0000 -0.7730
vn 0.0980 -0.0000 0.9952
usemtl None
s off
f 34/1/1 24/2/1 35/3/1
f 35/3/2 24/2/2 36/4/2
f 36/4/3 24/2/3 37/5/3
f 37/5/4 24/2/4 38/6/4
f 38/6/5 24/2/5 39/7/5
f 39/7/6 24/2/6 40/8/6
f 40/8/7 24/2/7 41/9/7
f 41/9/8 24/2/8 42/10/8
f 42/10/9 24/2/9 43/11/9
f 43/11/10 24/2/10 44/12/10
f 44/12/11 24/2/11 45/13/11
f 45/13/12 24/2/12 46/14/12
f 46/14/13 24/2/13 47/15/13
f 47/15/14 24/2/14 48/16/14
f 48/16/15 24/2/15 49/17/15
f 49/17/16 24/2/16 50/18/16
f 50/18/17 24/2/17 51/19/17
f 51/19/18 24/2/18 52/20/18
f 52/20/19 24/2/19 53/21/19
f 53/21/20 24/2/20 54/22/20
f 54/22/21 24/2/21 55/23/21
f 55/23/22 24/2/22 56/24/22
f 56/24/23 24/2/23 57/25/23
f 57/25/24 24/2/24 58/26/24
f 58/26/25 24/2/25 59/27/25
f 59/27/26 24/2/26 60/28/26
f 60/28/27 24/2/27 61/29/27
f 61/29/28 24/2/28 62/30/28
f 62/30/29 24/2/29 63/31/29
f 63/31/30 24/2/30 64/32/30
f 64/32/31 24/2/31 65/33/31
f 65/33/32 24/2/32 34/1/32
f 3/34/33 4/35/33 69/36/33 68/37/33
f 2/38/34 1/39/34 34/40/34 35/41/34
f 3/34/34 2/38/34 35/41/34 36/42/34
f 4/35/34 3/34/34 36/42/34 37/43/34
f 5/44/34 4/35/34 37/43/34 38/45/34
f 6/46/34 5/44/34 38/45/34 39/47/34
f 7/48/34 6/46/34 39/47/34 40/49/34
f 8/50/34 7/48/34 40/49/34 41/51/34
f 9/52/34 8/50/34 41/51/34 42/53/34
f 10/54/34 9/52/34 42/53/34 43/55/34
f 11/56/34 10/54/34 43/55/34 44/57/34
f 12/58/34 11/56/34 44/57/34 45/59/34
f 13/60/34 12/58/34 45/59/34 46/61/34
f 14/62/34 13/60/34 46/61/34 47/63/34
f 15/64/34 14/62/34 47/63/34 48/65/34
f 16/66/34 15/64/34 48/65/34 49/67/34
f 17/68/34 16/66/34 49/67/34 50/69/34
f 18/70/34 17/68/34 50/69/34 51/71/34
f 19/72/34 18/70/34 51/71/34 52/73/34
f 20/74/34 19/72/34 52/73/34 53/75/34
f 21/76/34 20/74/34 53/75/34 54/77/34
f 22/78/34 21/76/34 54/77/34 55/79/34
f 23/80/34 22/78/34 55/79/34 56/81/34
f 25/82/34 23/80/34 56/81/34 57/83/34
f 26/84/34 25/82/34 57/83/34 58/85/34
f 27/86/34 26/84/34 58/85/34 59/87/34
f 28/88/34 27/86/34 59/87/34 60/89/34
f 29/90/34 28/88/34 60/89/34 61/91/34
f 30/92/34 29/90/34 61/91/34 62/93/34
f 31/94/34 30/92/34 62/93/34 63/95/34
f 32/96/34 31/94/34 63/95/34 64/97/34
f 33/98/34 32/96/34 64/97/34 65/99/34
f 1/39/34 33/98/34 65/99/34 34/40/34
f 66/100/34 67/101/34 68/37/34 69/36/34 70/102/34 71/103/34 72/104/34 73/105/34 74/106/34 75/107/34 76/108/34 77/109/34 78/110/34 79/111/34 80/112/34 81/113/34 82/114/34 83/115/34 84/116/34 85/117/34 86/118/34 87/119/34 88/120/34 89/121/34 90/122/34 91/123/34 92/124/34 93/125/34 94/126/34 95/127/34 96/128/34 97/129/34
f 31/94/35 32/96/35 96/128/35 95/127/35
f 17/68/36 18/70/36 83/115/36 82/114/36
f 4/35/37 5/44/37 70/102/37 69/36/37
f 32/96/38 33/98/38 97/129/38 96/128/38
f 18/70/39 19/72/39 84/116/39 83/115/39
f 5/44/40 6/46/40 71/103/40 70/102/40
f 33/98/41 1/39/41 66/100/41 97/129/41
f 19/72/42 20/74/42 85/117/42 84/116/42
f 6/46/43 7/48/43 72/104/43 71/103/43
f 20/74/44 21/76/44 86/118/44 85/117/44
f 7/48/45 8/50/45 73/105/45 72/104/45
f 21/76/46 22/78/46 87/119/46 86/118/46
f 8/50/47 9/52/47 74/106/47 73/105/47
f 22/78/48 23/80/48 88/120/48 87/119/48
f 9/52/49 10/54/49 75/107/49 74/106/49
f 23/80/50 25/82/50 89/121/50 88/120/50
f 10/54/51 11/56/51 76/108/51 75/107/51
f 25/82/52 26/84/52 90/122/52 89/121/52
f 11/56/53 12/58/53 77/109/53 76/108/53
f 26/84/54 27/86/54 91/123/54 90/122/54
f 12/58/55 13/60/55 78/110/55 77/109/55
f 27/86/56 28/88/56 92/124/56 91/123/56
f 13/60/57 14/62/57 79/111/57 78/110/57
f 28/88/58 29/90/58 93/125/58 92/124/58
f 14/62/59 15/64/59 80/112/59 79/111/59
f 1/39/60 2/38/60 67/101/60 66/100/60
f 29/90/61 30/92/61 94/126/61 93/125/61
f 15/64/62 16/66/62 81/113/62 80/112/62
f 2/38/63 3/34/63 68/37/63 67/101/63
f 30/92/64 31/94/64 95/127/64 94/126/64
f 16/66/65 17/68/65 82/114/65 81/113/65
