# Blender v2.83 (sub 5) OBJ File: 'card_piece.blend'
# www.blender.org
mtllib unit.mtl
o Cube
v 1.000000 2.014095 0.732023
v 1.000000 -0.000744 -0.027582
v 1.000000 2.014095 0.787186
v 1.000000 -0.000744 0.027582
v -1.000000 2.014095 0.732023
v -1.000000 -0.000744 -0.027582
v -1.000000 2.014095 0.787186
v -1.000000 -0.000744 0.027582
v 1.000000 0.046976 -0.027582
v -1.000000 0.046976 0.027582
v 1.000000 0.046976 0.027582
v -1.000000 0.046976 -0.027582
v 1.000000 0.046976 1.040446
v 1.000000 -0.000744 1.040446
v -1.000000 -0.000744 1.040446
v -1.000000 0.046976 1.040446
vt -0.010639 1.005848
vt -0.010707 2.028632
vt -1.033491 2.028564
vt -1.033423 1.005780
vt -1.033356 -0.000189
vt -2.056207 1.005713
vt -2.056140 -0.000257
vt 2.034996 0.000015
vt 2.034929 1.005984
vt 1.012145 1.005916
vt 1.012212 -0.000053
vt -0.010503 -1.039720
vt -0.010571 -0.016936
vt -1.033355 -0.017004
vt -1.033288 -1.039788
vt -0.010572 -0.000121
vt 1.012213 -0.016868
vt 2.034997 -0.016800
vt -1.033355 -0.017004
vt -1.033288 -1.039788
vt -1.033356 -0.000189
vt -2.056140 -0.000257
vt -2.056139 -0.017072
vt 2.034997 -0.016800
vt 2.034996 0.000015
vn 0.0000 1.0000 0.0000
vn 0.0000 -0.3602 0.9329
vn -1.0000 0.0000 0.0000
vn 0.0000 -1.0000 0.0000
vn 1.0000 0.0000 0.0000
vn 0.0000 0.3602 -0.9329
vn 0.0000 0.0000 -1.0000
vn 0.0000 0.0000 1.0000
usemtl Material
s off
f 1/1/1 5/2/1 7/3/1 3/4/1
f 11/5/2 3/4/2 7/6/2 10/7/2
f 10/8/3 7/9/3 5/10/3 12/11/3
f 6/12/4 2/13/4 4/14/4 8/15/4
f 9/16/5 1/1/5 3/4/5 11/5/5
f 12/11/6 5/10/6 1/1/6 9/16/6
f 6/17/7 12/11/7 9/16/7 2/13/7
f 2/13/5 9/16/5 11/5/5 4/14/5
f 8/18/3 10/8/3 12/11/3 6/17/3
f 8/15/4 4/14/4 14/19/4 15/20/4
f 14/19/8 13/21/8 16/22/8 15/23/8
f 11/5/1 10/7/1 16/22/1 13/21/1
f 4/14/5 11/5/5 13/21/5 14/19/5
f 10/8/3 8/18/3 15/24/3 16/25/3
