# Blender v2.83 (sub 5) OBJ File: 'card_piece.blend'
# www.blender.org
mtllib unit.mtl
o Cube
v 1.000000 2.014095 0.732023
v 1.000000 -0.000744 -0.027582
v 1.000000 2.014095 0.787186
v 1.000000 -0.000744 0.027582
v -1.000000 2.014095 0.732023
v -1.000000 -0.000744 -0.027582
v -1.000000 2.014095 0.787186
v -1.000000 -0.000744 0.027582
v 1.000000 0.046976 -0.027582
v -1.000000 0.046976 0.027582
v 1.000000 0.046976 0.027582
v -1.000000 0.046976 -0.027582
v 1.000000 0.046976 1.040446
v 1.000000 -0.000744 1.040446
v -1.000000 -0.000744 1.040446
v -1.000000 0.046976 1.040446
vt 0.023644 0.969304
vt 0.023581 0.984648
vt 0.008236 0.984585
vt 0.008299 0.969241
vt 0.008361 0.034787
vt 0.013385 0.969178
vt 0.013447 0.034724
vt 0.993338 0.034977
vt 0.993276 0.969430
vt 0.973717 0.969367
vt 0.973779 0.034913
vt 0.023770 0.014102
vt 0.023707 0.019231
vt 0.008362 0.019168
vt 0.008425 0.014039
vt 0.023706 0.034850
vt 0.973780 0.019294
vt 0.993340 0.019357
vt 0.008362 0.019168
vt 0.008425 0.014039
vt 0.008361 0.034787
vt 0.013447 0.034724
vt 0.013448 0.019105
vt 0.993340 0.019357
vt 0.993338 0.034977
vn 0.0000 1.0000 0.0000
vn 0.0000 -0.3602 0.9329
vn -1.0000 0.0000 0.0000
vn 0.0000 -1.0000 0.0000
vn 1.0000 0.0000 0.0000
vn 0.0000 0.3602 -0.9329
vn 0.0000 0.0000 -1.0000
vn 0.0000 0.0000 1.0000
usemtl Material
s off
f 1/1/1 5/2/1 7/3/1 3/4/1
f 11/5/2 3/4/2 7/6/2 10/7/2
f 10/8/3 7/9/3 5/10/3 12/11/3
f 6/12/4 2/13/4 4/14/4 8/15/4
f 9/16/5 1/1/5 3/4/5 11/5/5
f 12/11/6 5/10/6 1/1/6 9/16/6
f 6/17/7 12/11/7 9/16/7 2/13/7
f 2/13/5 9/16/5 11/5/5 4/14/5
f 8/18/3 10/8/3 12/11/3 6/17/3
f 8/15/4 4/14/4 14/19/4 15/20/4
f 14/19/8 13/21/8 16/22/8 15/23/8
f 11/5/1 10/7/1 16/22/1 13/21/1
f 4/14/5 11/5/5 13/21/5 14/19/5
f 10/8/3 8/18/3 15/24/3 16/25/3
