{
    "asset" : {
        "generator" : "Khronos glTF Blender I/O v1.0.5",
        "version" : "2.0"
    },
    "scene" : 0,
    "scenes" : [
        {
            "name" : "Scene",
            "nodes" : [
                0
            ]
        }
    ],
    "nodes" : [
        {
            "mesh" : 0,
            "name" : "Cube",
            "scale" : [
                0.14348094165325165,
                1,
                1
            ],
            "translation" : [
                0,
                0.3629067540168762,
                -1.292855143547058
            ]
        }
    ],
    "materials" : [
        {
            "doubleSided" : true,
            "name" : "Material.001",
            "pbrMetallicRoughness" : {
                "baseColorTexture" : {
                    "index" : 0,
                    "texCoord" : 0
                },
                "metallicFactor" : 0,
                "roughnessFactor" : 0.5
            }
        }
    ],
    "meshes" : [
        {
            "name" : "Cube.001",
            "primitives" : [
                {
                    "attributes" : {
                        "POSITION" : 0,
                        "NORMAL" : 1,
                        "TEXCOORD_0" : 2
                    },
                    "indices" : 3,
                    "material" : 0
                }
            ]
        }
    ],
    "textures" : [
        {
            "source" : 0
        }
    ],
    "images" : [
        {
            "mimeType" : "image/png",
            "name" : "bm",
            "uri" : "bm.png"
        }
    ],
    "accessors" : [
        {
            "bufferView" : 0,
            "componentType" : 5126,
            "count" : 555,
            "max" : [
                1.1481316089630127,
                1.8810148239135742,
                3.424931049346924
            ],
            "min" : [
                -1.140952467918396,
                -2.4254820346832275,
                -1.0328149795532227
            ],
            "type" : "VEC3"
        },
        {
            "bufferView" : 1,
            "componentType" : 5126,
            "count" : 555,
            "type" : "VEC3"
        },
        {
            "bufferView" : 2,
            "componentType" : 5126,
            "count" : 555,
            "type" : "VEC2"
        },
        {
            "bufferView" : 3,
            "componentType" : 5123,
            "count" : 1320,
            "type" : "SCALAR"
        }
    ],
    "bufferViews" : [
        {
            "buffer" : 0,
            "byteLength" : 6660,
            "byteOffset" : 0
        },
        {
            "buffer" : 0,
            "byteLength" : 6660,
            "byteOffset" : 6660
        },
        {
            "buffer" : 0,
            "byteLength" : 4440,
            "byteOffset" : 13320
        },
        {
            "buffer" : 0,
            "byteLength" : 2640,
            "byteOffset" : 17760
        }
    ],
    "buffers" : [
        {
            "byteLength" : 20400,
            "uri" : "bm.bin"
        }
    ]
}
